<mxfile host="app.diagrams.net" agent="Mozilla/5.0 (Macintosh; Intel Mac OS X 10_15_7) AppleWebKit/537.36 (KHTML, like Gecko) Chrome/133.0.0.0 Safari/537.36" version="26.1.3">
  <diagram name="PÃ¡gina-1" id="VCYp6FUQlfHIgYfiVbeL">
    <mxGraphModel dx="2587" dy="1053" grid="0" gridSize="10" guides="1" tooltips="1" connect="1" arrows="1" fold="1" page="1" pageScale="1" pageWidth="2800" pageHeight="2800" math="0" shadow="0">
      <root>
        <mxCell id="0" />
        <mxCell id="1" parent="0" />
        <mxCell id="RAB4oMrrP03oKyiKPHIy-1" value="" style="shape=image;verticalLabelPosition=bottom;labelBackgroundColor=default;verticalAlign=top;aspect=fixed;imageAspect=0;image=https://us-west-2-tcprod.s3.us-west-2.amazonaws.com/courses/SPL-TF-200-NWNETL/v1.0.11.prod-f24780bd/instructions/pt_br/images/peering-architecture.png;" vertex="1" parent="1">
          <mxGeometry x="562" y="182" width="921" height="961" as="geometry" />
        </mxCell>
        <mxCell id="RAB4oMrrP03oKyiKPHIy-2" value="" style="shape=image;verticalLabelPosition=bottom;labelBackgroundColor=default;verticalAlign=top;aspect=fixed;imageAspect=0;image=https://us-west-2-tcprod.s3.us-west-2.amazonaws.com/courses/SPL-TF-200-NWNETL/v1.0.11.prod-f24780bd/instructions/pt_br/images/tgw-architecture.png;" vertex="1" parent="1">
          <mxGeometry x="1761.0000000000005" y="682" width="921" height="961" as="geometry" />
        </mxCell>
      </root>
    </mxGraphModel>
  </diagram>
</mxfile>
